# xmcd
#
# Track frame offsets:
#	150
#	11805
#	25737
#	38482
#	50447
#	67599
#	81397
#	104330
#	119868
#	132155
#	144598
#
# Disc length: 2098 seconds
#
# Revision: 0
# Processed by: cddbd v1.5PL3 Copyright (c) Steve Scherf et al.
# Submitted via: MusicManager 7.0.4.0 
#
DISCID=9108300b
DTITLE=RICK McKAY &DAVE INGLIS - NORTH AND SOUTH
DYEAR=1999
DGENRE=country
TTITLE0=HIS and HERS
TTITLE1=HIGH, LOW and IN BETWEEN
TTITLE2=ONE DANCE WITH YOU
TTITLE3=IS IT LOVE
TTITLE4=MAMA DON'T GET DRESSED UP
TTITLE5=OLD PIPELINER
TTITLE6='TIL I GAIN CONTROL AGAIN
TTITLE7=TRICKY MOON
TTITLE8={ i'm a } ONE WOMAN MAN
TTITLE9=TRAPPED LOVE
TTITLE10=COOL DRINK OF WATER [live }
EXTD=
EXTT0=
EXTT1=
EXTT2=
EXTT3=
EXTT4=
EXTT5=
EXTT6=
EXTT7=
EXTT8=
EXTT9=
EXTT10=
PLAYORDER=
